
<!-- Generator: visioncortex VTracer 0.6.4 -->
<svg version="1.1" xmlns="http://www.w3.org/2000/svg" viewBox="0 0 250 246" preserveAspectRatio="xMidYMid meet">
<path d="M0 0 C82.5 0 165 0 250 0 C250 81.18 250 162.36 250 246 C167.5 246 85 246 0 246 C0 164.82 0 83.64 0 0 Z " fill="#E0E0E0" transform="translate(0,0)"/>
<path d="M0 0 C2.271 -0.375 2.271 -0.375 5.162 -0.374 C6.256 -0.381 7.35 -0.388 8.477 -0.395 C9.682 -0.388 10.887 -0.38 12.129 -0.372 C13.394 -0.376 14.659 -0.38 15.962 -0.383 C19.438 -0.393 22.913 -0.383 26.388 -0.37 C30.02 -0.359 33.652 -0.363 37.283 -0.365 C43.383 -0.366 49.483 -0.355 55.583 -0.336 C62.641 -0.315 69.7 -0.312 76.758 -0.318 C83.54 -0.323 90.322 -0.318 97.104 -0.307 C99.994 -0.302 102.884 -0.301 105.774 -0.303 C109.807 -0.305 113.839 -0.291 117.871 -0.275 C119.076 -0.277 120.282 -0.28 121.523 -0.282 C122.617 -0.275 123.711 -0.268 124.838 -0.261 C126.269 -0.258 126.269 -0.258 127.729 -0.254 C130 0 130 0 132 2 C137.089 13.158 136.385 26.619 132.316 38.016 C128.497 46.674 122.989 53.378 116.559 60.238 C105.738 70.852 105.738 70.852 100 84 C100.366 83.539 100.732 83.077 101.109 82.602 C107.124 75.355 114.338 69.616 121.75 63.867 C132.231 55.719 140.475 46.729 142.255 33.037 C143.233 19.976 140.283 11.299 132 1 C132 0.67 132 0.34 132 0 C150.81 0 169.62 0 189 0 C189 80.85 189 161.7 189 245 C148.41 245 107.82 245 66 245 C72 233 72 233 74.25 228.688 C77.241 222.669 78.304 216.617 79 210 C81.64 209.67 84.28 209.34 87 209 C89.436 212.764 89.235 216.167 89.188 220.562 C89.187 221.571 89.187 221.571 89.186 222.6 C89.158 225.664 88.976 228.073 88 231 C92.01 227.324 94.453 223.81 97 219 C96.34 218.01 95.68 217.02 95 216 C95.302 213.042 95.667 210.666 97 208 C99.083 207.946 101.166 207.907 103.25 207.875 C104.41 207.852 105.57 207.829 106.766 207.805 C109.846 207.991 111.524 208.197 114 210 C114.589 212.404 115 214.52 115 217 C115.33 213.7 115.66 210.4 116 207 C119.63 206.01 123.26 205.02 127 204 C127.33 204.33 127.66 204.66 128 205 C128.33 204.01 128.66 203.02 129 202 C127.948 202.495 126.896 202.99 125.812 203.5 C122.745 204.828 120.379 205.307 117 205 C117.165 204.216 117.33 203.433 117.5 202.625 C118.62 194.504 118.807 187.961 114 181 C113.026 179.975 112.032 178.967 111 178 C111.205 177.42 111.41 176.84 111.621 176.242 C113.14 171.838 114.405 167.643 115 163 C116.48 163.476 117.959 163.956 119.438 164.438 C120.261 164.704 121.085 164.971 121.934 165.246 C124 166 124 166 125 167 C127.02 167.072 129.042 167.084 131.062 167.062 C132.167 167.053 133.272 167.044 134.41 167.035 C135.265 167.024 136.119 167.012 137 167 C135.845 166.649 134.69 166.299 133.5 165.938 C128.523 164.08 124.453 161.04 121 157 C121 156.01 121 155.02 121 154 C127.406 153.791 132.93 153.842 139 156 C131.194 151.74 124.827 150.823 116 151 C116.66 153.64 117.32 156.28 118 159 C117.01 158.67 116.02 158.34 115 158 C113.722 150.799 114.473 145.838 117 139 C117.66 139 118.32 139 119 139 C119 139.99 119 140.98 119 142 C119.916 142.046 119.916 142.046 120.851 142.094 C128.23 142.625 134.172 144.722 140.943 147.561 C147.809 150.29 153.822 150.991 161 149 C160.38 148.997 159.76 148.995 159.121 148.992 C152.416 148.699 146.902 146.99 140.794 144.378 C134.345 141.64 127.774 139.774 121 138 C121 137.67 121 137.34 121 137 C128.354 136.887 134.157 138.721 140.812 141.562 C149.45 145.163 157.152 146.964 166.465 144.293 C171.205 142.218 173.99 139.138 177 135 C176.397 135.41 175.793 135.82 175.172 136.242 C174.373 136.781 173.573 137.32 172.75 137.875 C171.961 138.409 171.172 138.942 170.359 139.492 C164.447 143.27 160.011 144.275 153 143 C146.901 140.814 141.09 137.931 135.275 135.091 C132.222 133.627 129.124 132.305 126 131 C127.305 128.39 128.358 128.319 131.062 127.375 C131.796 127.115 132.529 126.854 133.285 126.586 C133.851 126.393 134.417 126.199 135 126 C133.698 125.818 132.396 125.636 131.055 125.449 C129.328 125.196 127.601 124.942 125.875 124.688 C125.019 124.57 124.163 124.452 123.281 124.33 C118.329 123.587 114.39 122.569 110 120 C110.495 118.515 110.495 118.515 111 117 C118.439 117.883 118.439 117.883 121.445 118.512 C130.5 120.242 137.205 118.892 145 114 C145.33 113.67 145.66 113.34 146 113 C145.054 113.046 144.108 113.093 143.133 113.141 C135.189 113.403 127.834 112.863 120.062 111.125 C119.276 110.951 118.489 110.778 117.678 110.599 C115.766 110.141 113.879 109.579 112 109 C111.67 108.34 111.34 107.68 111 107 C111.927 107.021 112.855 107.042 113.811 107.063 C117.285 107.132 120.758 107.182 124.232 107.22 C125.73 107.24 127.227 107.267 128.725 107.302 C141.544 107.698 141.544 107.698 152.572 101.631 C153.769 100.474 154.894 99.244 156 98 C155.216 98.153 154.433 98.307 153.625 98.465 C149.083 99.135 144.584 99.365 140 99.562 C139.05 99.605 138.101 99.647 137.123 99.691 C126.749 100.114 116.38 100.099 106 100 C105.34 98.68 104.68 97.36 104 96 C105.482 95.97 105.482 95.97 106.994 95.94 C110.692 95.863 114.389 95.775 118.087 95.683 C119.681 95.645 121.276 95.61 122.87 95.578 C125.174 95.532 127.478 95.474 129.781 95.414 C130.835 95.397 130.835 95.397 131.91 95.379 C143.827 95.031 155.647 90.812 164.477 82.746 C166.06 80.931 167.029 79.196 168 77 C166.886 77.598 165.773 78.196 164.625 78.812 C156.051 83.073 146.857 84.703 137.5 86.375 C129.486 87.864 121.548 89.456 113.688 91.625 C112.972 91.819 112.257 92.013 111.52 92.212 C107.634 93.328 104.306 94.656 101 97 C100.67 97.66 100.34 98.32 100 99 C96.215 100.548 93.082 101.24 89 101 C91.445 98.351 94.039 96.183 96.938 94.062 C99.313 92.316 101.343 90.657 103.438 88.562 C109.898 82.102 116.763 77.975 124.938 74 C132.092 70.52 138.783 67.025 145 62 C146.178 61.099 146.178 61.099 147.379 60.18 C154.776 54.159 159.786 46.982 161.062 37.375 C161.382 29.65 158.429 23.751 155 17 C154.986 17.871 154.972 18.743 154.957 19.641 C154.32 35.558 147.795 47.75 136.293 58.539 C130.982 62.961 125.349 66.95 119.742 70.984 C112.527 76.288 105.809 82.104 99.25 88.188 C98.695 88.699 98.14 89.211 97.568 89.738 C95.29 91.844 93.044 93.955 90.867 96.168 C89.125 97.875 89.125 97.875 86 100 C82.449 99.52 82.449 99.52 79 98 C77.512 95.27 77.512 95.27 76.688 91.812 C76.383 90.56 76.079 89.307 75.766 88.016 C74.712 82.819 74.113 77.578 73.504 72.312 C72.908 68.395 71.862 65.471 70 62 C71.98 62 73.96 62 76 62 C75.67 61.34 75.34 60.68 75 60 C77.31 59.01 79.62 58.02 82 57 C79.383 56.163 77.348 56 74.562 56 C71.46 56 69.01 55.602 66 55 C60.308 54.483 57.414 55.321 53 59 C52.67 59.99 52.34 60.98 52 62 C51.01 62.33 50.02 62.66 49 63 C48.67 64.65 48.34 66.3 48 68 C48.33 67.67 48.66 67.34 49 67 C53.449 66.629 56.008 66.535 60.062 68.438 C62 71 62 71 62.312 74.75 C60.958 82.772 56.175 93.548 50 99 C47.664 99.953 47.664 99.953 45 100 C42.211 98.234 42.211 98.234 39.375 95.75 C38.434 94.94 37.493 94.131 36.523 93.297 C35.274 92.16 35.274 92.16 34 91 C33.398 90.469 32.796 89.938 32.176 89.391 C31 88 31 88 30.812 85 C29.822 75.931 20.311 68.027 14.449 61.672 C4.189 50.478 -5.437 37.045 -5.312 21.25 C-5.31 20.549 -5.307 19.848 -5.304 19.126 C-5.164 12.107 -3.935 5.903 0 0 Z " fill="#EDEDED" transform="translate(61,1)"/>
<path d="M0 0 C5.902 5.634 7.545 11.236 8.059 19.234 C7.844 29.35 1.646 37.703 -5.375 44.5 C-13.034 51.103 -22.119 55.475 -31.047 60.098 C-43.199 66.28 -43.199 66.28 -53 75.562 C-56.029 79.254 -59.973 81.496 -64 84 C-58.969 83.43 -56.11 82.718 -52.148 79.492 C-40.92 71.693 -21.582 70.073 -8.314 67.838 C-0.858 66.58 5.283 64.414 12 61 C12.99 60.67 13.98 60.34 15 60 C12.53 67.271 7.195 71.343 0.504 74.812 C-7.645 78.502 -14.875 80.1 -23.805 80.316 C-24.529 80.337 -25.253 80.358 -25.999 80.379 C-28.291 80.444 -30.583 80.503 -32.875 80.562 C-34.438 80.606 -36 80.649 -37.562 80.693 C-41.375 80.8 -45.187 80.901 -49 81 C-48.67 81.99 -48.34 82.98 -48 84 C-41.88 83.738 -35.76 83.471 -29.641 83.2 C-27.561 83.109 -25.482 83.019 -23.402 82.93 C-20.404 82.801 -17.405 82.669 -14.406 82.535 C-13.485 82.497 -12.564 82.458 -11.615 82.418 C-6.36 82.18 -1.21 81.726 4 81 C0.254 86.462 -4.753 89.918 -11 92 C-13.357 92.084 -15.716 92.107 -18.074 92.098 C-19.1 92.096 -19.1 92.096 -20.146 92.093 C-22.327 92.088 -24.507 92.075 -26.688 92.062 C-28.167 92.057 -29.647 92.053 -31.127 92.049 C-34.751 92.038 -38.376 92.021 -42 92 C-30.114 95.114 -19.285 96.56 -7 96 C-12.477 101.672 -16.521 104.137 -24.375 104.312 C-28.762 104.198 -32.795 103.577 -37.027 102.438 C-39.314 101.856 -39.314 101.856 -43 102 C-43 102.66 -43 103.32 -43 104 C-34.818 107.214 -26.678 108.095 -18 109 C-20.711 111.971 -23.132 112.882 -27 114 C-24.336 115.339 -21.67 116.673 -19 118 C-17.926 118.535 -17.926 118.535 -16.83 119.08 C-4.02 125.812 -4.02 125.812 10 126 C14.71 124.087 18.518 121.711 22 118 C22.66 118.33 23.32 118.66 24 119 C19.049 125.335 15.19 129.265 7.078 130.414 C-3.111 131.048 -11.079 127.775 -20.229 123.643 C-22.156 122.829 -22.156 122.829 -25 123 C-23.857 123.364 -23.857 123.364 -22.691 123.734 C-17.825 125.314 -13.127 126.863 -8.562 129.188 C-2.992 131.808 2.933 131.812 9 132 C6.019 134.981 2.945 135.163 -1.16 135.273 C-6.404 135.211 -10.637 133.602 -15.438 131.625 C-21.938 129.078 -28.059 127.024 -35 126 C-35 125.01 -35 124.02 -35 123 C-35.66 123 -36.32 123 -37 123 C-37.144 124.176 -37.289 125.351 -37.438 126.562 C-37.777 129.3 -38.153 132.021 -38.562 134.75 C-39.089 138.114 -39.089 138.114 -39 142 C-38.34 141.67 -37.68 141.34 -37 141 C-37.66 139.02 -38.32 137.04 -39 135 C-37.467 133.467 -36.068 133.831 -33.938 133.812 C-26.333 133.921 -19.449 135.883 -13 140 C-12.67 140.66 -12.34 141.32 -12 142 C-12.594 141.795 -13.189 141.59 -13.801 141.379 C-20.208 139.296 -26.282 138.37 -33 138 C-30.562 143.525 -26.087 146.136 -21 149 C-17.663 150.368 -17.663 150.368 -15 151 C-15 151.33 -15 151.66 -15 152 C-24.337 152.605 -31.038 152.137 -39 147 C-39.073 147.87 -39.073 147.87 -39.148 148.758 C-39.801 155.576 -39.801 155.576 -41.438 159.062 C-42.322 161.953 -42.322 161.953 -40.828 164.039 C-39.753 165.447 -38.637 166.826 -37.48 168.168 C-34.032 172.435 -34.653 177.798 -35 183 C-36 186.625 -36 186.625 -37 189 C-33.04 188.01 -29.08 187.02 -25 186 C-25.33 187.65 -25.66 189.3 -26 191 C-26.66 190.34 -27.32 189.68 -28 189 C-30.46 189.2 -30.46 189.2 -33.125 189.875 C-34.035 190.079 -34.945 190.282 -35.883 190.492 C-36.581 190.66 -37.28 190.827 -38 191 C-37.988 191.71 -37.977 192.421 -37.965 193.152 C-37.956 194.071 -37.947 194.991 -37.938 195.938 C-37.926 196.854 -37.914 197.771 -37.902 198.715 C-38 201 -38 201 -39 202 C-40.666 202.041 -42.334 202.043 -44 202 C-42.68 201.34 -41.36 200.68 -40 200 C-40 198.02 -40 196.04 -40 194 C-43.561 192.951 -47.055 192.696 -50.75 192.438 C-51.92 192.354 -53.091 192.27 -54.297 192.184 C-55.189 192.123 -56.081 192.062 -57 192 C-57.33 195.3 -57.66 198.6 -58 202 C-57.34 202.33 -56.68 202.66 -56 203 C-57.071 204.799 -58.157 206.589 -59.25 208.375 C-59.853 209.373 -60.457 210.37 -61.078 211.398 C-62.964 213.951 -64.072 214.925 -67 216 C-66.756 215.244 -66.756 215.244 -66.508 214.473 C-65.816 211.103 -65.868 207.875 -65.875 204.438 C-65.871 203.765 -65.867 203.093 -65.863 202.4 C-65.869 199.325 -66.02 196.94 -67 194 C-69.64 194 -72.28 194 -75 194 C-74.897 195.031 -74.794 196.062 -74.688 197.125 C-74.75 208.906 -81.671 219.546 -88 229 C-92.162 226.919 -93.899 220.997 -96 217 C-96.411 216.288 -96.822 215.577 -97.246 214.844 C-100.179 209.6 -100.667 204.987 -101 199 C-97.37 198.34 -93.74 197.68 -90 197 C-90.66 197.66 -91.32 198.32 -92 199 C-92.885 205.768 -91.565 212.433 -90 219 C-89.34 219 -88.68 219 -88 219 C-86.199 211.671 -84.638 204.526 -84 197 C-85.32 196.67 -86.64 196.34 -88 196 C-75.431 192.755 -62.873 190.645 -50 189 C-49.67 188.01 -49.34 187.02 -49 186 C-49.33 185.34 -49.66 184.68 -50 184 C-49.34 183.67 -48.68 183.34 -48 183 C-48.66 182.34 -49.32 181.68 -50 181 C-49.34 180.34 -48.68 179.68 -48 179 C-58.387 173.807 -75.409 180.077 -85.974 182.366 C-90.632 183.342 -95.313 184.18 -100 185 C-100 184.01 -100 183.02 -100 182 C-101.65 181.67 -103.3 181.34 -105 181 C-105.99 183.97 -105.99 183.97 -107 187 C-113.93 187.99 -113.93 187.99 -121 189 C-120.67 185.37 -120.34 181.74 -120 178 C-119.34 178 -118.68 178 -118 178 C-118 177.01 -118 176.02 -118 175 C-120.197 173.065 -120.197 173.065 -123 172 C-125.303 172.691 -125.303 172.691 -127 174 C-126.34 174.66 -125.68 175.32 -125 176 C-130.28 176 -135.56 176 -141 176 C-141 169.736 -140.551 168.7 -137 164 C-136.34 163.01 -135.68 162.02 -135 161 C-135.643 158.571 -135.643 158.571 -136.875 156.062 C-138.471 152.559 -139 150.97 -139 147 C-139.947 147.541 -139.947 147.541 -140.914 148.094 C-148.75 152.158 -155.269 152.574 -164 152 C-161.282 150.188 -159.296 149.387 -156.25 148.375 C-150.607 146.207 -147.52 142.802 -144 138 C-156.019 139.184 -156.019 139.184 -167 144 C-165.544 140.163 -163.786 139.035 -160.125 137.312 C-159.261 136.896 -158.398 136.48 -157.508 136.051 C-153.095 134.202 -149.548 133.885 -144.75 133.938 C-143.672 133.947 -142.595 133.956 -141.484 133.965 C-140.255 133.982 -140.255 133.982 -139 134 C-139.165 134.949 -139.33 135.898 -139.5 136.875 C-140.053 139.802 -140.053 139.802 -140 142 C-138.477 140.477 -138.794 139.121 -138.75 137 C-138.783 131.931 -140.143 127.676 -142 123 C-142.495 124.485 -142.495 124.485 -143 126 C-145.421 126.773 -147.71 127.358 -150.188 127.875 C-155.805 129.139 -161.065 130.674 -166.438 132.75 C-173.054 135.199 -178.18 136.247 -185.062 134 C-185.702 133.67 -186.341 133.34 -187 133 C-187 132.67 -187 132.34 -187 132 C-186.187 132.009 -185.373 132.018 -184.535 132.027 C-175.238 131.787 -168.385 129.5 -160.008 125.691 C-156.085 123.935 -152.191 122.933 -148 122 C-154.579 122.793 -160.267 124.443 -166.312 127.125 C-174.279 130.532 -182.311 131.999 -190.734 129.039 C-195.134 126.782 -198.252 124.182 -201 120 C-200.505 119.01 -200.505 119.01 -200 118 C-199.469 118.41 -198.938 118.82 -198.391 119.242 C-197.684 119.781 -196.978 120.32 -196.25 120.875 C-195.554 121.409 -194.858 121.942 -194.141 122.492 C-188.787 126.263 -184.474 126.867 -178 126 C-173.842 124.662 -169.957 122.84 -166 121 C-163.424 119.879 -160.836 118.785 -158.25 117.688 C-156.166 116.792 -154.083 115.897 -152 115 C-152.505 114.651 -153.011 114.301 -153.531 113.941 C-154.181 113.486 -154.831 113.031 -155.5 112.562 C-156.15 112.11 -156.799 111.658 -157.469 111.191 C-157.974 110.798 -158.479 110.405 -159 110 C-159 109.67 -159 109.34 -159 109 C-157.782 108.818 -156.564 108.636 -155.309 108.449 C-153.685 108.196 -152.061 107.942 -150.438 107.688 C-149.238 107.511 -149.238 107.511 -148.014 107.33 C-142.91 106.518 -138.663 105.235 -134 103 C-137.602 102.09 -140.038 102.02 -143.625 102.938 C-151.731 104.657 -158.243 105.437 -165.625 101.125 C-169.801 98.398 -169.801 98.398 -171 96 C-170.149 96.046 -169.298 96.093 -168.422 96.141 C-157.202 96.475 -146.913 94.482 -136 92 C-137.391 92.039 -137.391 92.039 -138.811 92.079 C-142.285 92.165 -145.758 92.227 -149.232 92.275 C-150.73 92.3 -152.227 92.334 -153.725 92.377 C-169.43 92.822 -169.43 92.822 -176 87 C-177.485 85.917 -177.485 85.917 -179 84.812 C-179.66 84.214 -180.32 83.616 -181 83 C-181 82.34 -181 81.68 -181 81 C-179.084 81.489 -179.084 81.489 -177.129 81.988 C-172.013 83.12 -167.155 83.257 -161.934 83.195 C-161.014 83.192 -160.095 83.19 -159.147 83.187 C-156.244 83.176 -153.341 83.151 -150.438 83.125 C-148.455 83.115 -146.473 83.106 -144.49 83.098 C-139.66 83.076 -134.83 83.041 -130 83 C-129.67 82.34 -129.34 81.68 -129 81 C-129.937 80.985 -130.874 80.971 -131.839 80.956 C-135.373 80.894 -138.906 80.82 -142.44 80.738 C-143.958 80.705 -145.477 80.677 -146.996 80.654 C-162.263 80.417 -176.608 78.804 -188.309 67.836 C-193 62.644 -193 62.644 -193 60 C-192.165 60.433 -192.165 60.433 -191.312 60.875 C-184.107 64.381 -176.9 66.347 -169 67.516 C-165.132 68.14 -161.397 69.094 -157.609 70.086 C-154.709 70.82 -151.809 71.505 -148.891 72.164 C-147.515 72.479 -147.515 72.479 -146.111 72.8 C-144.292 73.214 -142.471 73.622 -140.649 74.023 C-134.842 75.36 -129.197 77.01 -124 80 C-123.67 80.66 -123.34 81.32 -123 82 C-120.678 82.407 -118.343 82.744 -116 83 C-118.448 80.783 -120.901 78.572 -123.363 76.371 C-124.835 75.048 -126.299 73.715 -127.73 72.348 C-134.514 66.052 -143.15 61.957 -151.336 57.77 C-164.509 51.019 -177.604 43.319 -184 29.188 C-186.355 21.518 -186.119 13.465 -182.625 6.25 C-180.388 2.194 -180.388 2.194 -178 1 C-177.923 2.58 -177.923 2.58 -177.844 4.191 C-176.628 21.634 -169.493 33.163 -156.565 44.707 C-154.175 46.681 -151.613 48.336 -149 50 C-138.741 57.053 -128.814 64.928 -120.125 73.875 C-114.434 80.152 -114.434 80.152 -106.938 83.148 C-104.797 82.894 -104.797 82.894 -102 82 C-101.443 80.144 -101.443 80.144 -100.875 78.25 C-99.208 73.151 -96.788 68.585 -94.207 63.895 C-92.862 60.669 -92.661 58.462 -93 55 C-94.42 52.932 -94.42 52.932 -97 52 C-100.474 51.629 -103.807 51.403 -107 53 C-106.67 51.02 -106.34 49.04 -106 47 C-104.68 46.67 -103.36 46.34 -102 46 C-101.959 45.422 -101.918 44.845 -101.875 44.25 C-100.498 40.708 -98.309 39.716 -95 38 C-91.665 37.707 -88.894 37.812 -85.625 38.5 C-82.396 39.115 -79.361 38.98 -76.086 38.84 C-74 39 -74 39 -71 41 C-73.386 42.892 -75.072 44.024 -78 45 C-76.68 45.66 -75.36 46.32 -74 47 C-76.97 47 -79.94 47 -83 47 C-82.304 48.181 -82.304 48.181 -81.594 49.387 C-79.624 53.853 -79.082 57.998 -78.5 62.812 C-77.675 69.538 -76.382 75.642 -74 82 C-71.308 82.986 -71.308 82.986 -68 83 C-65.594 81.272 -63.786 79.717 -61.75 77.625 C-60.599 76.505 -59.448 75.385 -58.297 74.266 C-57.735 73.708 -57.174 73.151 -56.596 72.576 C-47.221 63.317 -36.793 55.433 -26.125 47.75 C-24.415 46.502 -22.707 45.252 -21 44 C-20.049 43.321 -20.049 43.321 -19.078 42.629 C-10.858 36.275 -3.344 25.119 -1 15 C-0.426 9.995 -0.134 5.038 0 0 Z " fill="#CE9948" transform="translate(215,17)"/>
<path d="M0 0 C3.876 0.005 6.753 0.106 10.188 1.938 C13.398 3.688 13.398 3.688 16.75 1.938 C17.946 1.381 19.142 0.824 20.375 0.25 C28.084 -1.001 35.929 1.471 43.375 3.25 C43.375 3.91 43.375 4.57 43.375 5.25 C44.365 5.25 45.355 5.25 46.375 5.25 C46.375 18.78 46.375 32.31 46.375 46.25 C38.375 45.25 38.375 45.25 35.062 44.188 C29.496 42.772 23.255 42.078 17.832 44.285 C15.101 45.358 13.564 45.343 10.688 44.938 C9.921 44.838 9.154 44.739 8.363 44.637 C6.375 44.25 6.375 44.25 4.375 43.25 C-2.053 42.792 -7.458 43.352 -13.625 45.25 C-15.935 45.25 -18.245 45.25 -20.625 45.25 C-20.625 32.38 -20.625 19.51 -20.625 6.25 C-19.965 6.25 -19.305 6.25 -18.625 6.25 C-18.295 5.26 -17.965 4.27 -17.625 3.25 C-16.843 3.117 -16.06 2.984 -15.254 2.848 C-14.242 2.671 -13.23 2.494 -12.188 2.312 C-11.178 2.138 -10.169 1.964 -9.129 1.785 C-0.835 0.012 -0.835 0.012 0 0 Z " fill="#F9FAFA" transform="translate(113.625,134.75)"/>
<path d="M0 0 C25.41 0 50.82 0 77 0 C78.32 4.29 79.64 8.58 81 13 C81.557 14.485 82.114 15.97 82.688 17.5 C85.627 26.415 85.941 34.956 82.219 43.633 C75.924 55.86 60.331 61.42 48 66 C47.34 66 46.68 66 46 66 C46 66.66 46 67.32 46 68 C43.397 68.671 40.793 69.337 38.188 70 C37.45 70.191 36.712 70.382 35.951 70.578 C32.895 71.353 30.166 72 27 72 C27 71.34 27 70.68 27 70 C29.97 69.505 29.97 69.505 33 69 C30.855 67.914 28.71 66.831 26.562 65.75 C25.922 65.427 25.281 65.104 24.62 64.772 C21.181 63.051 17.737 61.422 14.188 59.938 C4.152 55.535 -3.671 49.232 -8 39 C-9.268 29.025 -7.471 20.3 -4 11 C-2.68 7.37 -1.36 3.74 0 0 Z M15 7 C12.674 7.381 10.341 7.725 8 8 C7.67 8.99 7.34 9.98 7 11 C6.34 11 5.68 11 5 11 C5 23.87 5 36.74 5 50 C11.452 50.343 11.452 50.343 15.25 49 C22.148 47.161 28.43 47.206 35 50 C38.218 50.268 40.38 50.261 43.367 49.004 C50.65 46.227 58.41 48.06 65.59 50.344 C68.227 51.175 68.227 51.175 72 51 C72 37.47 72 23.94 72 10 C71.01 10 70.02 10 69 10 C69 9.34 69 8.68 69 8 C55.318 4.299 55.318 4.299 41.812 6.688 C39.816 7.531 39.816 7.531 38 8 C35.982 7.037 33.985 6.03 32 5 C25.841 4.395 20.702 4.544 15 7 Z " fill="#142A47" transform="translate(88,130)"/>
<path d="M0 0 C3.328 0.345 5.271 1.794 7.812 3.875 C15.661 9.855 22.288 10.743 32 10 C34.493 9.524 36.615 8.888 39 8 C40.203 9.572 41.387 11.158 42.562 12.75 C43.224 13.632 43.885 14.513 44.566 15.422 C46 18 46 18 45.836 20.188 C45 22 45 22 43.062 24.25 C40.314 27.544 40.314 27.544 39 35 C13.92 35 -11.16 35 -37 35 C-37.66 32.36 -38.32 29.72 -39 27 C-40.176 24.928 -40.176 24.928 -41.625 23.5 C-42.409 22.675 -43.192 21.85 -44 21 C-42.358 16.224 -39.735 12.206 -37 8 C-36.144 8.325 -35.288 8.65 -34.406 8.984 C-30.915 10.025 -28.131 10.267 -24.5 10.25 C-22.876 10.258 -22.876 10.258 -21.219 10.266 C-15.688 9.809 -11.437 7.876 -6.75 5 C-5.899 4.484 -5.048 3.969 -4.172 3.438 C-1.914 2.047 -1.914 2.047 0 0 Z " fill="#F8F7F5" transform="translate(125,94)"/>
<path d="M0 0 C3.375 1.186 5.647 2.276 8 5 C7.34 5.99 6.68 6.98 6 8 C5.626 10.327 5.292 12.661 5 15 C4.67 15.99 4.34 16.98 4 18 C4.888 17.783 4.888 17.783 5.793 17.562 C9.925 16.592 13.723 15.724 18 16 C18.33 14.02 18.66 12.04 19 10 C23 10 23 10 25 11 C25 11.99 25 12.98 25 14 C26.174 13.674 27.349 13.348 28.559 13.012 C60.134 4.379 60.134 4.379 75 6 C75.99 6.66 76.98 7.32 78 8 C77.835 8.763 77.67 9.526 77.5 10.312 C76.909 13.036 76.909 13.036 77 16 C77 16.99 77 17.98 77 19 C75.507 19.147 75.507 19.147 73.984 19.297 C62.495 20.502 51.294 22.594 40 25 C40.33 25.33 40.66 25.66 41 26 C41.665 33.975 39.597 40.5 37 48 C36.34 48 35.68 48 35 48 C32.555 41.16 31.604 35.253 32 28 C32 27.67 32 27.34 32 27 C31.331 27.151 30.661 27.303 29.971 27.459 C26.879 28.151 23.784 28.826 20.688 29.5 C19.635 29.738 18.582 29.977 17.498 30.223 C8.179 32.23 -0.906 33.41 -10 30 C-10.99 29.34 -11.98 28.68 -13 28 C-12.67 26.68 -12.34 25.36 -12 24 C-11.01 24.66 -10.02 25.32 -9 26 C-9.959 23.669 -9.959 23.669 -13 22 C-11.35 21.67 -9.7 21.34 -8 21 C-9.229 17.312 -10.939 16.276 -14 14 C-14.33 15.65 -14.66 17.3 -15 19 C-20.445 19.99 -20.445 19.99 -26 21 C-25.814 20.113 -25.629 19.226 -25.438 18.312 C-25.016 15.124 -25.314 13.088 -26 10 C-25 8 -25 8 -22.449 6.93 C-17.881 5.699 -13.365 5.315 -8.658 4.965 C-4.343 4.536 -4.343 4.536 -1.012 1.93 C-0.678 1.293 -0.344 0.656 0 0 Z " fill="#ECECEC" transform="translate(90,188)"/>
<path d="M0 0 C1.047 -0.026 2.093 -0.052 3.172 -0.078 C6.837 0.313 8.443 0.844 11.25 3.25 C11.704 6.24 11.835 8.655 11.738 11.637 C11.731 12.454 11.724 13.271 11.717 14.113 C11.689 16.722 11.626 19.329 11.562 21.938 C11.537 23.706 11.515 25.475 11.494 27.244 C11.439 31.58 11.353 35.915 11.25 40.25 C10.312 39.925 9.374 39.601 8.408 39.267 C1.459 37.03 -4.897 38.1 -11.75 40.25 C-13.4 40.25 -15.05 40.25 -16.75 40.25 C-16.75 28.37 -16.75 16.49 -16.75 4.25 C-11.8 2.765 -11.8 2.765 -6.75 1.25 C-4.964 -0.536 -2.413 0.035 0 0 Z " fill="#F0F0F0" transform="translate(113.75,134.75)"/>
<path d="M0 0 C5.902 5.634 7.545 11.236 8.059 19.234 C7.844 29.35 1.646 37.703 -5.375 44.5 C-13.034 51.103 -22.119 55.475 -31.047 60.098 C-43.199 66.28 -43.199 66.28 -53 75.562 C-55.978 79.193 -59.74 82.005 -64 84 C-66.281 83.664 -66.281 83.664 -68 83 C-64.237 79.514 -60.468 76.034 -56.692 72.56 C-55.247 71.228 -53.807 69.89 -52.367 68.551 C-44.114 60.965 -35.211 54.294 -26.125 47.75 C-24.415 46.502 -22.707 45.252 -21 44 C-20.366 43.548 -19.732 43.095 -19.078 42.629 C-10.858 36.275 -3.344 25.119 -1 15 C-0.426 9.995 -0.134 5.038 0 0 Z " fill="#182E4C" transform="translate(215,17)"/>
<path d="M0 0 C0.33 0 0.66 0 1 0 C1.052 1.053 1.103 2.106 1.156 3.191 C2.372 20.634 9.507 32.163 22.435 43.707 C24.825 45.681 27.387 47.336 30 49 C40.899 56.493 51.283 64.928 60.469 74.465 C63.156 77.159 66.083 79.559 69 82 C67.23 82.648 67.23 82.648 65 83 C63.176 82.102 63.176 82.102 61.312 80.625 C60.607 80.067 59.902 79.509 59.176 78.934 C56.96 76.965 55.005 74.869 53 72.688 C45.876 65.405 36.507 61.305 27.539 56.715 C14.413 49.969 1.376 42.273 -5 28.188 C-7.363 20.493 -7.126 12.46 -3.562 5.25 C-1.361 1.361 -1.361 1.361 0 0 Z " fill="#182E4B" transform="translate(36,18)"/>
<path d="M0 0 C3.229 0.615 6.264 0.48 9.539 0.34 C11.625 0.5 11.625 0.5 14.625 2.5 C12.239 4.392 10.553 5.524 7.625 6.5 C8.945 7.16 10.265 7.82 11.625 8.5 C8.655 8.5 5.685 8.5 2.625 8.5 C3.088 9.288 3.551 10.075 4.027 10.887 C6.001 15.35 6.58 19.502 7.188 24.312 C8.047 30.803 9.123 37.124 10.625 43.5 C5.448 41.281 2.328 38.644 -1.375 34.5 C-1.375 33.84 -1.375 33.18 -1.375 32.5 C-5.211 34.063 -7.511 36.564 -10.375 39.5 C-11.687 40.528 -13.012 41.541 -14.375 42.5 C-15.035 42.17 -15.695 41.84 -16.375 41.5 C-15.966 40.684 -15.966 40.684 -15.549 39.851 C-14.312 37.365 -13.093 34.87 -11.875 32.375 C-11.446 31.519 -11.016 30.663 -10.574 29.781 C-7.49 23.456 -7.49 23.456 -7.375 16.5 C-8.795 14.432 -8.795 14.432 -11.375 13.5 C-14.849 13.129 -18.182 12.903 -21.375 14.5 C-21.045 12.52 -20.715 10.54 -20.375 8.5 C-19.055 8.17 -17.735 7.84 -16.375 7.5 C-16.334 6.922 -16.293 6.345 -16.25 5.75 C-13.547 -1.201 -6.316 -1.33 0 0 Z " fill="#1E334F" transform="translate(129.375,55.5)"/>
<path d="M0 0 C1 2 1 2 0.441 3.82 C0.151 4.581 -0.139 5.341 -0.438 6.125 C-4.637 19.661 -1.99 31.511 4.469 43.793 C8.065 49.901 12.515 54.897 17.361 60.008 C20.988 63.848 24.419 67.786 27.688 71.938 C28.496 72.957 29.304 73.977 30.137 75.027 C32.089 78.142 32.681 80.369 33 84 C32.01 83.01 32.01 83.01 31 82 C30.537 81.541 30.074 81.082 29.598 80.609 C28.486 79.489 27.39 78.352 26.309 77.203 C21.56 72.247 16.414 68.217 10.895 64.148 C0.203 56.213 -8.755 46.588 -11 33 C-11.977 19.877 -9.493 11.009 -1 1 C-0.67 0.67 -0.34 0.34 0 0 Z " fill="#182E4C" transform="translate(59,2)"/>
<path d="M0 0 C0.66 0 1.32 0 2 0 C3.621 1.941 3.621 1.941 5.438 4.562 C6.034 5.409 6.631 6.256 7.246 7.129 C10.968 13.221 12.538 18.22 12.438 25.25 C12.43 25.995 12.422 26.74 12.415 27.508 C12.043 40.051 6.14 50.537 -2.828 59.129 C-6.107 61.954 -9.555 64.55 -13.01 67.155 C-19.784 72.287 -26.026 77.958 -32 84 C-30.776 74.861 -23.037 67.902 -16.938 61.438 C-5.442 49.242 3.439 35.879 3.312 18.625 C3.311 17.52 3.311 17.52 3.309 16.393 C3.206 10.576 2.231 5.405 0 0 Z " fill="#1A2F4D" transform="translate(192,2)"/>
<path d="M0 0 C1.32 0.33 2.64 0.66 4 1 C3.01 1 2.02 1 1 1 C1 12.88 1 24.76 1 37 C4.96 36.01 8.92 35.02 13 34 C19.404 33.632 22.026 33.61 28 36 C28.33 24.12 28.66 12.24 29 0 C29.33 0 29.66 0 30 0 C30.33 12.21 30.66 24.42 31 37 C33.31 36.01 35.62 35.02 38 34 C45.672 32.752 52.481 35.12 60 37 C60 25.12 60 13.24 60 1 C59.01 0.67 58.02 0.34 57 0 C58.32 0 59.64 0 61 0 C61 0.66 61 1.32 61 2 C61.99 2 62.98 2 64 2 C64 15.53 64 29.06 64 43 C56 42 56 42 52.688 40.938 C47.121 39.522 40.88 38.828 35.457 41.035 C32.726 42.108 31.189 42.093 28.312 41.688 C27.546 41.588 26.779 41.489 25.988 41.387 C24 41 24 41 22 40 C15.572 39.542 10.167 40.102 4 42 C1.69 42 -0.62 42 -3 42 C-3 29.13 -3 16.26 -3 3 C-2.34 3 -1.68 3 -1 3 C-0.67 2.01 -0.34 1.02 0 0 Z " fill="#AEB5C0" transform="translate(96,138)"/>
<path d="M0 0 C-0.33 3.63 -0.66 7.26 -1 11 C-0.34 11.33 0.32 11.66 1 12 C-0.071 13.799 -1.157 15.589 -2.25 17.375 C-2.853 18.373 -3.457 19.37 -4.078 20.398 C-5.964 22.951 -7.072 23.925 -10 25 C-9.756 24.244 -9.756 24.244 -9.508 23.473 C-8.816 20.103 -8.868 16.875 -8.875 13.438 C-8.871 12.765 -8.867 12.093 -8.863 11.4 C-8.869 8.325 -9.02 5.94 -10 3 C-12.64 3 -15.28 3 -18 3 C-17.897 4.031 -17.794 5.062 -17.688 6.125 C-17.75 17.906 -24.671 28.546 -31 38 C-35.162 35.919 -36.899 29.997 -39 26 C-39.411 25.288 -39.822 24.577 -40.246 23.844 C-43.179 18.6 -43.667 13.987 -44 8 C-40.37 7.34 -36.74 6.68 -33 6 C-33.66 6.66 -34.32 7.32 -35 8 C-35.885 14.768 -34.565 21.433 -33 28 C-32.34 28 -31.68 28 -31 28 C-29.199 20.671 -27.638 13.526 -27 6 C-28.32 5.67 -29.64 5.34 -31 5 C-28.292 4.352 -25.584 3.706 -22.875 3.062 C-22.114 2.88 -21.354 2.698 -20.57 2.51 C-13.6 0.857 -7.169 -0.124 0 0 Z " fill="#223651" transform="translate(158,208)"/>
<path d="M0 0 C0.557 0.289 1.114 0.578 1.688 0.875 C8.893 4.381 16.1 6.347 24 7.516 C27.868 8.14 31.603 9.094 35.391 10.086 C38.291 10.82 41.191 11.505 44.109 12.164 C45.027 12.374 45.944 12.583 46.889 12.8 C48.708 13.214 50.529 13.622 52.351 14.023 C58.257 15.383 63.556 17.339 69 20 C65.223 21.231 61.515 21.085 57.594 20.984 C56.873 20.968 56.153 20.951 55.41 20.934 C53.884 20.897 52.357 20.856 50.831 20.813 C48.536 20.751 46.241 20.709 43.945 20.668 C29.376 20.324 15.782 18.232 4.691 7.836 C0 2.644 0 2.644 0 0 Z " fill="#1A304D" transform="translate(22,77)"/>
<path d="M0 0 C0 4.047 -1.54 5.31 -4.172 8.23 C-13.643 17.398 -26.184 20.051 -38.898 20.316 C-40.151 20.348 -40.151 20.348 -41.429 20.379 C-44.077 20.444 -46.726 20.504 -49.375 20.562 C-51.178 20.606 -52.982 20.649 -54.785 20.693 C-59.19 20.8 -63.595 20.901 -68 21 C-56.455 12.007 -36.477 10.224 -22.314 7.838 C-14.898 6.587 -8.636 4.534 -2 1 C-1.34 0.67 -0.68 0.34 0 0 Z " fill="#1A304D" transform="translate(229,77)"/>
<path d="M0 0 C1.401 4.202 0.05 6.338 -1.645 10.305 C-7.03 21.014 -14.803 26.703 -25.938 30.625 C-34.469 33.376 -43.226 35.214 -52 37 C-53.665 37.342 -53.665 37.342 -55.363 37.691 C-57.573 38.138 -59.786 38.572 -62 39 C-59.584 36.255 -57.096 34.909 -53.801 33.363 C-52.764 32.872 -51.727 32.382 -50.659 31.876 C-49.554 31.36 -48.45 30.844 -47.312 30.312 C-45.035 29.231 -42.758 28.149 -40.48 27.066 C-37.466 25.639 -34.451 24.213 -31.436 22.789 C-19.25 17 -8.43 10.818 0 0 Z " fill="#1A304D" transform="translate(229,51)"/>
<path d="M0 0 C0.949 0.846 1.898 1.691 2.875 2.562 C16.321 13.985 32.077 21.986 48.187 28.957 C52.99 31.04 57.503 33.315 62 36 C58.496 37.168 57.072 36.774 53.512 35.961 C51.873 35.589 51.873 35.589 50.201 35.209 C49.041 34.934 47.882 34.659 46.688 34.375 C45.51 34.097 44.333 33.819 43.12 33.533 C25.415 29.262 13.112 24.453 2.125 9.438 C0.689 6.327 0.333 3.392 0 0 Z " fill="#182E4C" transform="translate(23,53)"/>
<path d="M0 0 C3.375 1.186 5.647 2.276 8 5 C7.34 5.99 6.68 6.98 6 8 C5.632 10.328 5.298 12.662 5 15 C4.67 15.66 4.34 16.32 4 17 C1.562 17.081 -0.874 17.14 -3.312 17.188 C-4.348 17.225 -4.348 17.225 -5.404 17.264 C-10.557 17.338 -10.557 17.338 -12.98 15.488 C-13.317 14.997 -13.653 14.506 -14 14 C-14.33 15.65 -14.66 17.3 -15 19 C-20.445 19.99 -20.445 19.99 -26 21 C-25.814 20.113 -25.629 19.226 -25.438 18.312 C-25.016 15.124 -25.314 13.088 -26 10 C-25 8 -25 8 -22.449 6.93 C-17.881 5.699 -13.365 5.315 -8.658 4.965 C-4.343 4.536 -4.343 4.536 -1.012 1.93 C-0.678 1.293 -0.344 0.656 0 0 Z " fill="#F1F1F1" transform="translate(90,188)"/>
<path d="M0 0 C-1.177 1.116 -2.367 2.217 -3.562 3.312 C-4.224 3.927 -4.885 4.542 -5.566 5.176 C-12.916 10.685 -19.628 10.432 -28.562 10.312 C-30.371 10.317 -30.371 10.317 -32.217 10.322 C-37.92 10.288 -42.65 10.17 -48 8 C-51 4.8 -51 4.8 -51 2 C-49.729 1.945 -48.458 1.889 -47.148 1.832 C-42.418 1.625 -37.688 1.414 -32.958 1.2 C-30.913 1.109 -28.869 1.019 -26.824 0.93 C-23.88 0.802 -20.936 0.669 -17.992 0.535 C-16.628 0.477 -16.628 0.477 -15.236 0.418 C-11.588 0.249 -8.106 0.018 -4.5 -0.596 C-2 -1 -2 -1 0 0 Z " fill="#1C314E" transform="translate(219,99)"/>
<path d="M0 0 C0.803 0.209 0.803 0.209 1.623 0.423 C7.421 1.836 12.893 2.333 18.848 2.414 C19.745 2.433 20.642 2.453 21.567 2.473 C24.399 2.532 27.23 2.579 30.062 2.625 C31.997 2.663 33.931 2.702 35.865 2.742 C40.577 2.838 45.288 2.922 50 3 C48.926 5.915 48.222 7.778 46 10 C39.219 11.22 32.375 11.285 25.5 11.375 C23.866 11.431 23.866 11.431 22.199 11.488 C15.003 11.567 10.615 10.532 5 6 C4.01 5.278 3.02 4.556 2 3.812 C1.34 3.214 0.68 2.616 0 2 C0 1.34 0 0.68 0 0 Z " fill="#152B49" transform="translate(34,98)"/>
<path d="M0 0 C1.588 -0.062 3.176 -0.124 4.812 -0.188 C6.152 -0.24 6.152 -0.24 7.52 -0.293 C10.416 0.049 11.226 0.754 13 3 C13.804 2.257 13.804 2.257 14.625 1.5 C17.74 -0.467 19.372 -0.592 23 0 C25.938 2.062 25.938 2.062 28 5 C28 8.544 27.659 10.866 25.875 13.938 C22.815 15.671 20.432 15.421 17 15 C14.093 12.781 13.16 11.481 12 8 C11.01 8.33 10.02 8.66 9 9 C9.99 10.98 10.98 12.96 12 15 C10.125 14.688 10.125 14.688 8 14 C7.34 13.01 6.68 12.02 6 11 C5.01 10.67 4.02 10.34 3 10 C3 11.65 3 13.3 3 15 C2.01 15 1.02 15 0 15 C0 10.05 0 5.1 0 0 Z " fill="#2A2A2A" transform="translate(129,109)"/>
<path d="M0 0 C2.611 1.305 2.69 2.28 3.625 5 C5.163 9.816 5.239 13.972 5 19 C3.02 19.99 3.02 19.99 1 21 C1.99 18.03 2.98 15.06 4 12 C-6.73 12.717 -6.73 12.717 -16.75 16.188 C-22.024 18.937 -27.308 18 -33 17 C-33.99 16.67 -34.98 16.34 -36 16 C-36.33 15.01 -36.66 14.02 -37 13 C-35.701 12.794 -34.401 12.588 -33.062 12.375 C-27.992 11.387 -23.325 9.731 -18.5 7.938 C-12.253 5.627 -6.717 4.213 0 4 C0 2.68 0 1.36 0 0 Z " fill="#E3D8C7" transform="translate(72,139)"/>
<path d="M0 0 C0.66 0 1.32 0 2 0 C2 0.99 2 1.98 2 3 C2.611 3.032 3.222 3.063 3.851 3.096 C10.301 3.565 15.605 5.054 21.562 7.5 C27.813 10.053 33.24 11.514 40 12 C38 15 38 15 36.145 15.676 C29.686 16.652 24.224 15.965 18 14 C11.552 12.407 5.639 11.786 -1 12 C-0.34 14.64 0.32 17.28 1 20 C0.01 19.67 -0.98 19.34 -2 19 C-3.278 11.799 -2.527 6.838 0 0 Z " fill="#EADECB" transform="translate(178,140)"/>
<path d="M0 0 C2.678 1.255 4.704 3.079 7 4.938 C8.052 5.309 9.104 5.68 10.188 6.062 C13 7.938 13 7.938 13.824 10.348 C14.326 12.876 14.721 15.375 15 17.938 C16.417 17.626 17.833 17.313 19.25 17 C20.039 16.826 20.828 16.652 21.641 16.473 C23.769 15.99 25.885 15.476 28 14.938 C27.505 17.412 27.505 17.412 27 19.938 C26.34 19.278 25.68 18.618 25 17.938 C22.54 18.137 22.54 18.137 19.875 18.812 C18.965 19.016 18.055 19.22 17.117 19.43 C16.419 19.597 15.72 19.765 15 19.938 C15.012 20.648 15.023 21.358 15.035 22.09 C15.044 23.009 15.053 23.928 15.062 24.875 C15.074 25.792 15.086 26.708 15.098 27.652 C15 29.938 15 29.938 14 30.938 C12.334 30.978 10.666 30.98 9 30.938 C10.32 30.278 11.64 29.618 13 28.938 C13 26.958 13 24.977 13 22.938 C8.391 21.564 3.672 21.569 -1.102 21.316 C-4 20.938 -4 20.938 -6 18.938 C-3.03 18.608 -0.06 18.278 3 17.938 C3.33 16.947 3.66 15.958 4 14.938 C3.67 14.278 3.34 13.618 3 12.938 C3.66 12.607 4.32 12.278 5 11.938 C4.34 11.278 3.68 10.618 3 9.938 C3.66 9.278 4.32 8.618 5 7.938 C2.566 6.721 0.582 6.618 -2.125 6.375 C-3.035 6.291 -3.945 6.207 -4.883 6.121 C-5.581 6.061 -6.28 6 -7 5.938 C-7 4.947 -7 3.958 -7 2.938 C-4.648 1.108 -3.04 -0.095 0 0 Z " fill="#A2A2A2" transform="translate(162,188.0625)"/>
<path d="M0 0 C2.083 -0.054 4.166 -0.093 6.25 -0.125 C7.99 -0.16 7.99 -0.16 9.766 -0.195 C12.847 -0.009 14.519 0.204 17 2 C18.405 7.189 18.405 7.189 17 10 C22.94 9.505 22.94 9.505 29 9 C23.773 14.227 13.776 13.232 6.883 13.266 C3.999 13 2.386 12.605 0 11 C-2 8 -2 8 -1.688 4.938 C-1 2 -1 2 0 0 Z " fill="#C7C7C7" transform="translate(158,209)"/>
<path d="M0 0 C0.66 0.33 1.32 0.66 2 1 C2 1.99 2 2.98 2 4 C-4.93 7.465 -4.93 7.465 -12 11 C-2.641 9.068 -2.641 9.068 6.625 6.75 C9.867 6.03 10.976 6.076 14 7 C13.34 7.33 12.68 7.66 12 8 C12.66 8.66 13.32 9.32 14 10 C13.416 10.131 12.832 10.261 12.231 10.396 C9.527 11.005 6.826 11.628 4.125 12.25 C2.748 12.557 2.748 12.557 1.344 12.871 C-10.246 15.119 -10.246 15.119 -19 22 C-22.776 23.594 -25.912 24.24 -30 24 C-27.555 21.351 -24.961 19.183 -22.062 17.062 C-19.687 15.316 -17.657 13.657 -15.562 11.562 C-11.124 7.124 -5.909 2.336 0 0 Z " fill="#DADCDF" transform="translate(180,78)"/>
<path d="M0 0 C2.456 0.387 3.711 0.696 5.449 2.523 C5.858 3.134 6.266 3.745 6.688 4.375 C7.104 4.981 7.52 5.587 7.949 6.211 C10.673 10.849 10.472 15.788 10 21 C9.225 23.551 8.241 25.622 7 28 C6.67 28 6.34 28 6 28 C5.963 27.385 5.925 26.77 5.887 26.137 C5.788 24.924 5.788 24.924 5.688 23.688 C5.629 22.887 5.571 22.086 5.512 21.262 C4.905 18.578 4.139 17.686 2 16 C1.031 15.546 0.061 15.093 -0.938 14.625 C-4.273 12.855 -5.85 11.06 -8 8 C-7.506 7.59 -7.013 7.18 -6.504 6.758 C-5.863 6.219 -5.223 5.68 -4.562 5.125 C-3.924 4.591 -3.286 4.058 -2.629 3.508 C-0.892 2.078 -0.892 2.078 0 0 Z " fill="#132845" transform="translate(170,179)"/>
<path d="M0 0 C-0.278 1.176 -0.278 1.176 -0.562 2.375 C-1.26 4.971 -1.26 4.971 0 7 C-17.924 12.255 -17.924 12.255 -25.875 8.723 C-32.589 4.822 -32.589 4.822 -34 2 C-32.585 2.035 -32.585 2.035 -31.141 2.07 C-23.735 2.174 -16.914 1.847 -9.609 0.445 C-6.334 -0.114 -3.312 -0.151 0 0 Z " fill="#1A2F4C" transform="translate(78,111)"/>
<path d="M0 0 C2.084 0.142 4.167 0.288 6.25 0.438 C7.99 0.559 7.99 0.559 9.766 0.684 C13 1 13 1 14.945 1.514 C17.08 2.019 18.92 2.114 21.109 2.098 C22.241 2.093 22.241 2.093 23.395 2.088 C24.172 2.08 24.949 2.071 25.75 2.062 C26.939 2.056 26.939 2.056 28.152 2.049 C30.102 2.037 32.051 2.019 34 2 C28.589 7.604 24.513 10.121 16.75 10.375 C10.884 10.229 5.556 8.805 0 7 C0.186 6.216 0.371 5.433 0.562 4.625 C1.26 2.029 1.26 2.029 0 0 Z " fill="#192F4B" transform="translate(174,111)"/>
<path d="M0 0 C0.578 0.619 1.155 1.238 1.75 1.875 C3.802 3.813 5.434 4.9 8 6 C8 7.32 8 8.64 8 10 C6.68 10 5.36 10 4 10 C5.65 11.32 7.3 12.64 9 14 C7.125 14.625 7.125 14.625 5 15 C4.34 14.34 3.68 13.68 3 13 C2.67 13.99 2.34 14.98 2 16 C10.652 19.494 18.848 19.307 28 19 C27.99 20.084 27.979 21.168 27.969 22.285 C27.997 25.66 28.355 28.696 29 32 C24.551 30.517 22.254 26.917 20 23 C20 22.34 20 21.68 20 21 C19.371 21.095 18.742 21.191 18.094 21.289 C12.148 22.059 7.675 22.027 2 20 C-0.136 16.796 -0.231 15.981 -0.125 12.312 C-0.107 11.504 -0.089 10.696 -0.07 9.863 C-0.047 9.248 -0.024 8.634 0 8 C-1.418 8.285 -2.834 8.578 -4.25 8.875 C-5.433 9.119 -5.433 9.119 -6.641 9.367 C-8.968 9.992 -10.89 10.848 -13 12 C-12.385 6.462 -12.385 6.462 -10.438 4.125 C-9.726 3.568 -9.726 3.568 -9 3 C-9.33 4.65 -9.66 6.3 -10 8 C-9.01 7.67 -8.02 7.34 -7 7 C-4.667 6.96 -2.333 6.956 0 7 C0 4.69 0 2.38 0 0 Z " fill="#898989" transform="translate(75,200)"/>
<path d="M0 0 C0.33 1.98 0.66 3.96 1 6 C-6.091 10.538 -12.684 11.034 -21 10 C-23.687 8.952 -24.904 8.034 -27 6 C-27 5.67 -27 5.34 -27 5 C-25.77 4.807 -24.54 4.613 -23.273 4.414 C-21.641 4.151 -20.008 3.888 -18.375 3.625 C-17.567 3.499 -16.759 3.372 -15.926 3.242 C-10.607 2.377 -5.302 0 0 0 Z " fill="#1F334F" transform="translate(83,121)"/>
<path d="M0 0 C0.608 0.193 1.217 0.387 1.844 0.586 C10.146 3.052 18.42 4.085 27 5 C22.697 9.552 18.241 10.151 12.125 10.375 C6.375 10.303 2.863 8.993 -2 6 C-1.125 1.125 -1.125 1.125 0 0 Z " fill="#1C304C" transform="translate(170,121)"/>
<path d="M0 0 C9.905 0.39 18.577 2.749 27.438 7.188 C33.008 9.808 38.933 9.812 45 10 C42.019 12.981 38.945 13.163 34.84 13.273 C29.596 13.211 25.363 11.602 20.562 9.625 C14.062 7.078 7.941 5.024 1 4 C0.67 2.68 0.34 1.36 0 0 Z " fill="#DAA351" transform="translate(179,139)"/>
<path d="M0 0 C-0.33 3.63 -0.66 7.26 -1 11 C-0.34 11.33 0.32 11.66 1 12 C-0.071 13.799 -1.157 15.589 -2.25 17.375 C-2.853 18.373 -3.457 19.37 -4.078 20.398 C-5.964 22.951 -7.072 23.925 -10 25 C-9.838 24.496 -9.675 23.992 -9.508 23.473 C-8.816 20.103 -8.868 16.875 -8.875 13.438 C-8.871 12.765 -8.867 12.093 -8.863 11.4 C-8.843 5.621 -8.843 5.621 -12 1 C-8.019 -0.327 -4.15 -0.069 0 0 Z " fill="#1E314B" transform="translate(158,208)"/>
<path d="M0 0 C4.381 1.46 7.044 4.316 9.312 8.312 C9.653 9.148 9.653 9.148 10 10 C9.34 10.66 8.68 11.32 8 12 C8.66 12.66 9.32 13.32 10 14 C4.72 14 -0.56 14 -6 14 C-6 7.241 -4.662 4.662 0 0 Z " fill="#1B2F4A" transform="translate(80,179)"/>
<path d="M0 0 C0 1.32 0 2.64 0 4 C-0.993 4.231 -1.985 4.461 -3.008 4.699 C-9.994 6.365 -16.726 8.176 -23.438 10.75 C-30.054 13.199 -35.18 14.247 -42.062 12 C-42.702 11.67 -43.341 11.34 -44 11 C-44 10.67 -44 10.34 -44 10 C-42.78 10.014 -42.78 10.014 -41.535 10.027 C-32.238 9.787 -25.385 7.5 -17.008 3.691 C-11.583 1.275 -5.997 -0.375 0 0 Z " fill="#D89F47" transform="translate(72,139)"/>
<path d="M0 0 C4.234 1.311 8.074 2.944 12 5 C11.34 7.31 10.68 9.62 10 12 C5.38 12.66 0.76 13.32 -4 14 C-3.67 10.37 -3.34 6.74 -3 3 C-2.34 3 -1.68 3 -1 3 C-0.67 2.01 -0.34 1.02 0 0 Z " fill="#172A44" transform="translate(98,192)"/>
<path d="M0 0 C0.897 2.691 1.279 4.889 1.562 7.688 C1.646 8.496 1.73 9.304 1.816 10.137 C1.877 10.752 1.938 11.366 2 12 C0.421 12.533 -1.164 13.051 -2.75 13.562 C-3.632 13.853 -4.513 14.143 -5.422 14.441 C-8.078 15.017 -9.47 14.892 -12 14 C-11.67 13.67 -11.34 13.34 -11 13 C-10.767 11.318 -10.587 9.629 -10.438 7.938 C-10.293 6.308 -10.149 4.679 -10 3 C-5.05 1.515 -5.05 1.515 0 0 Z " fill="#F9F9F9" transform="translate(187,205)"/>
<path d="M0 0 C0.495 1.98 0.495 1.98 1 4 C-0.051 4.17 -1.101 4.34 -2.184 4.516 C-9.253 5.718 -15.457 6.94 -21.895 10.215 C-25.813 11.676 -29.886 11.309 -34 11 C-34.33 10.34 -34.66 9.68 -35 9 C-34.189 8.758 -33.378 8.515 -32.543 8.266 C-26.091 6.313 -19.734 4.241 -13.438 1.832 C-8.887 0.279 -4.798 -0.112 0 0 Z " fill="#D9A351" transform="translate(73,145)"/>
<path d="M0 0 C1.32 0 2.64 0 4 0 C5.32 2.97 6.64 5.94 8 9 C9.32 6.03 10.64 3.06 12 0 C12.99 0 13.98 0 15 0 C15 4.95 15 9.9 15 15 C14.34 15 13.68 15 13 15 C12.67 12.03 12.34 9.06 12 6 C10.68 8.97 9.36 11.94 8 15 C7.34 15 6.68 15 6 15 C5.01 12.03 4.02 9.06 3 6 C2.67 8.97 2.34 11.94 2 15 C1.34 15 0.68 15 0 15 C0 10.05 0 5.1 0 0 Z " fill="#373737" transform="translate(96,109)"/>
<path d="M0 0 C8.022 -0.746 15.986 1.975 23.098 5.562 C25.757 6.88 27.982 7.618 30.875 8.188 C31.656 8.346 32.437 8.505 33.242 8.668 C33.822 8.778 34.402 8.887 35 9 C33 11 33 11 29.125 11.438 C23.879 11.345 19.868 9.389 15.152 7.246 C10.241 5.305 5.222 4.62 0 4 C0 2.68 0 1.36 0 0 Z " fill="#DAA452" transform="translate(179,145)"/>
<path d="M0 0 C0.99 0 1.98 0 3 0 C3.33 0.99 3.66 1.98 4 3 C4.351 2.505 4.701 2.01 5.062 1.5 C7.973 -0.753 10.43 -0.26 14 0 C14.66 0.33 15.32 0.66 16 1 C15.67 1.99 15.34 2.98 15 4 C13.866 3.814 12.731 3.629 11.562 3.438 C10.387 3.293 9.211 3.149 8 3 C6.596 4.177 6.596 4.177 6.875 7.5 C6.596 10.823 6.596 10.823 8 12 C12.143 12.247 12.143 12.247 16 11 C15.67 11.99 15.34 12.98 15 14 C12.201 15.399 10.095 15.253 7 15 C5.125 13.5 5.125 13.5 4 12 C3.67 12.99 3.34 13.98 3 15 C2.01 15 1.02 15 0 15 C0 10.05 0 5.1 0 0 Z " fill="#2B2B2B" transform="translate(112,109)"/>
<path d="M0 0 C2.083 -0.054 4.166 -0.093 6.25 -0.125 C7.99 -0.16 7.99 -0.16 9.766 -0.195 C12.847 -0.009 14.526 0.192 17 2 C17.75 5.125 17.75 5.125 18 8 C15.325 9.036 13.545 9.199 10.84 8.211 C9.274 7.484 7.714 6.744 6.16 5.992 C3.8 4.908 1.574 4.332 -1 4 C-0.67 2.68 -0.34 1.36 0 0 Z " fill="#FAFAFA" transform="translate(158,209)"/>
<path d="M0 0 C0.66 0 1.32 0 2 0 C2 12.87 2 25.74 2 39 C-3.577 39 -6.131 38.9 -11 37 C-11 36.34 -11 35.68 -11 35 C-7.036 34.924 -3.873 35.032 0 36 C0 24.12 0 12.24 0 0 Z " fill="#F4F5F7" transform="translate(157,141)"/>
<path d="M0 0 C0.33 0 0.66 0 1 0 C1 4.29 1 8.58 1 13 C0.01 13 -0.98 13 -2 13 C-3.516 13.062 -3.516 13.062 -5.062 13.125 C-8 13 -8 13 -10 11 C-10.25 7.5 -10.25 7.5 -10 4 C-8 2 -8 2 -5.5 1.812 C-3 2 -3 2 -1 3 C-0.67 2.01 -0.34 1.02 0 0 Z " fill="#F3F3F3" transform="translate(128,109)"/>
<path d="M0 0 C0.66 0.33 1.32 0.66 2 1 C1.01 1.99 0.02 2.98 -1 4 C-0.67 4.66 -0.34 5.32 0 6 C-0.678 6.473 -1.356 6.946 -2.055 7.434 C-8.021 11.673 -13.468 16.104 -18.711 21.215 C-21.206 23.161 -22.889 23.654 -26 24 C-25.67 23.01 -25.34 22.02 -25 21 C-24.67 21.33 -24.34 21.66 -24 22 C-23.634 21.539 -23.268 21.077 -22.891 20.602 C-16.25 12.601 -8.09 6.46 0 0 Z " fill="#D6D8DC" transform="translate(185,63)"/>
<path d="M0 0 C2.672 1.253 4.705 3.09 7 4.938 C7.907 5.268 8.815 5.597 9.75 5.938 C10.864 6.433 10.864 6.433 12 6.938 C13.054 9.86 13.108 12.604 13.062 15.688 C13.053 16.487 13.044 17.286 13.035 18.109 C13.024 18.713 13.012 19.316 13 19.938 C12.34 20.267 11.68 20.597 11 20.938 C10 17.938 10 17.938 10 14.938 C10.66 14.607 11.32 14.278 12 13.938 C6.134 7.637 1.383 6.41 -7 5.938 C-7 4.947 -7 3.958 -7 2.938 C-4.648 1.108 -3.04 -0.095 0 0 Z " fill="#949596" transform="translate(162,188.0625)"/>
<path d="M0 0 C0.66 0 1.32 0 2 0 C2 11.88 2 23.76 2 36 C4.31 36 6.62 36 9 36 C9 36.66 9 37.32 9 38 C7 39 7 39 0 39 C0 26.13 0 13.26 0 0 Z " fill="#F2F3F5" transform="translate(93,141)"/>
<path d="M0 0 C1.504 0.014 1.504 0.014 3.039 0.027 C3.81 0.039 4.581 0.051 5.375 0.062 C2.756 1.809 1.337 2.45 -1.625 3.062 C-1.625 4.382 -1.625 5.702 -1.625 7.062 C-1.625 9.684 -1.938 11.572 -2.625 14.062 C-6.36 13.565 -8.437 13.188 -11.625 11.062 C-11.295 9.743 -10.965 8.423 -10.625 7.062 C-9.14 8.053 -9.14 8.053 -7.625 9.062 C-8.584 6.732 -8.584 6.732 -11.625 5.062 C-9.975 4.732 -8.325 4.403 -6.625 4.062 C-6.955 3.072 -7.285 2.083 -7.625 1.062 C-4.98 -0.26 -2.947 -0.034 0 0 Z " fill="#BFBFBF" transform="translate(88.625,204.9375)"/>
<path d="M0 0 C2 2 2 2 2.25 5.5 C2 9 2 9 0 11 C-3 11.312 -3 11.312 -6 11 C-8 8 -8 8 -7.75 4.375 C-7.502 3.261 -7.255 2.147 -7 1 C-4.487 -0.256 -2.783 -0.209 0 0 Z " fill="#F4F4F4" transform="translate(152,111)"/>
<path d="M0 0 C0.66 0.33 1.32 0.66 2 1 C1.175 1.763 0.35 2.526 -0.5 3.312 C-3.341 5.754 -3.341 5.754 -3 9 C-7.302 14.192 -13.153 18.706 -19 22 C-21.34 21.727 -21.34 21.727 -23 21 C-15.383 13.944 -7.741 6.92 0 0 Z " fill="#233854" transform="translate(170,79)"/>
<path d="M0 0 C2.938 2.062 2.938 2.062 5 5 C5 8.544 4.659 10.866 2.875 13.938 C-0.185 15.671 -2.568 15.421 -6 15 C-8.375 13.5 -8.375 13.5 -10 11 C-10.609 8.296 -10.814 5.783 -11 3 C-7.212 0.326 -4.642 -0.774 0 0 Z M-6.875 3.062 C-8.663 6.142 -7.746 8.643 -7 12 C-5.888 13.332 -5.888 13.332 -3.062 13.188 C0.109 13.333 0.109 13.333 2 11 C2.333 7.5 2.333 7.5 2 4 C0.178 1.77 0.178 1.77 -2.438 1.688 C-4.982 1.831 -4.982 1.831 -6.875 3.062 Z " fill="#2E2E2E" transform="translate(152,109)"/>
<path d="M0 0 C6.334 -0.345 11.103 0.707 17 3 C17 3.99 17 4.98 17 6 C14.562 6.081 12.126 6.14 9.688 6.188 C8.652 6.225 8.652 6.225 7.596 6.264 C2.443 6.338 2.443 6.338 0.02 4.488 C-0.485 3.752 -0.485 3.752 -1 3 C-0.67 2.01 -0.34 1.02 0 0 Z " fill="#FCFCFC" transform="translate(77,199)"/>
<path d="M0 0 C7.329 -0.113 13.069 1.703 19.688 4.562 C28.329 8.249 35.716 8.797 45 8 C44.34 9.32 43.68 10.64 43 12 C34.366 11.973 27.529 10.815 19.642 7.378 C13.253 4.597 6.736 2.765 0 1 C0 0.67 0 0.34 0 0 Z " fill="#EBDDC9" transform="translate(182,138)"/>
<path d="M0 0 C5.94 0 11.88 0 18 0 C17.67 0.99 17.34 1.98 17 3 C14.03 2.505 14.03 2.505 11 2 C10.67 9.26 10.34 16.52 10 24 C9.34 24 8.68 24 8 24 C8 16.41 8 8.82 8 1 C5.36 1.66 2.72 2.32 0 3 C0 2.01 0 1.02 0 0 Z " fill="#292929" transform="translate(133,140)"/>
<path d="M0 0 C8.521 -1.206 15.261 1.222 23.009 4.422 C28.423 6.615 33.163 7.586 39 8 C38.34 8.99 37.68 9.98 37 11 C30.225 9.636 23.789 8.04 17.375 5.438 C11.649 3.122 6.11 1.82 0 1 C0 0.67 0 0.34 0 0 Z " fill="#EDE5DA" transform="translate(179,144)"/>
<path d="M0 0 C0.66 0.33 1.32 0.66 2 1 C1.34 1.66 0.68 2.32 0 3 C0.99 3.33 1.98 3.66 3 4 C3 4.66 3 5.32 3 6 C0.626 6.507 -1.749 7.006 -4.125 7.5 C-4.79 7.643 -5.455 7.786 -6.141 7.934 C-10.161 8.761 -13.899 9.153 -18 9 C-14.613 6.175 -10.901 4.46 -6.875 2.75 C-6.242 2.469 -5.609 2.188 -4.957 1.898 C-3.331 1.201 -1.667 0.593 0 0 Z " fill="#A77E3F" transform="translate(152,188)"/>
<path d="M0 0 C-3.394 2.262 -6.76 3.244 -10.625 4.375 C-15.219 5.739 -19.501 7.117 -23.75 9.375 C-29.019 11.933 -34.384 10.874 -40 10 C-40 9.67 -40 9.34 -40 9 C-39.415 9.009 -38.83 9.018 -38.227 9.027 C-29.745 8.734 -22.763 5.805 -15.039 2.594 C-9.922 0.499 -5.537 -0.129 0 0 Z " fill="#E0D0B8" transform="translate(70,138)"/>
<path d="M0 0 C0 0.33 0 0.66 0 1 C-0.811 1.242 -1.622 1.485 -2.457 1.734 C-7.993 3.41 -13.467 5.134 -18.875 7.188 C-22.964 8.714 -26.658 9.614 -31 10 C-31.33 9.01 -31.66 8.02 -32 7 C-30.701 6.794 -29.401 6.588 -28.062 6.375 C-22.125 5.227 -16.593 3.15 -10.979 0.945 C-6.94 -0.577 -4.271 -1.452 0 0 Z " fill="#E2D6C4" transform="translate(67,145)"/>
<path d="M0 0 C3.006 3.006 2.596 5.824 3 10 C4.417 9.688 5.833 9.376 7.25 9.062 C8.039 8.888 8.828 8.714 9.641 8.535 C11.769 8.052 13.885 7.538 16 7 C15.67 8.65 15.34 10.3 15 12 C14.34 11.34 13.68 10.68 13 10 C10.54 10.2 10.54 10.2 7.875 10.875 C6.965 11.079 6.055 11.282 5.117 11.492 C4.419 11.66 3.72 11.827 3 12 C3.012 12.71 3.023 13.421 3.035 14.152 C3.049 15.531 3.049 15.531 3.062 16.938 C3.074 17.854 3.086 18.771 3.098 19.715 C3 22 3 22 2 23 C0.334 23.041 -1.334 23.043 -3 23 C-1.68 22.34 -0.36 21.68 1 21 C1 19.02 1 17.04 1 15 C0.01 14.67 -0.98 14.34 -2 14 C-1.34 13.34 -0.68 12.68 0 12 C0.243 9.101 0.243 9.101 0.125 5.875 C0.107 4.779 0.089 3.684 0.07 2.555 C0.047 1.712 0.024 0.869 0 0 Z " fill="#6F6F6F" transform="translate(174,196)"/>
<path d="M0 0 C-0.021 1.031 -0.041 2.062 -0.062 3.125 C-0.007 6.552 0.346 9.646 1 13 C-3.412 11.529 -5.851 7.954 -8 4 C-8 3.01 -8 2.02 -8 1 C-5.072 0.024 -3.044 -0.082 0 0 Z " fill="#1E314B" transform="translate(103,219)"/>
<path d="M0 0 C-1 3 -1 3 -3.938 4.688 C-8.537 6.527 -13.126 6.265 -18 6 C-18.33 5.34 -18.66 4.68 -19 4 C-18.096 3.723 -17.193 3.446 -16.262 3.16 C-15.082 2.798 -13.903 2.436 -12.688 2.062 C-11.516 1.703 -10.344 1.343 -9.137 0.973 C-2.892 -0.964 -2.892 -0.964 0 0 Z " fill="#D9A454" transform="translate(57,150)"/>
<path d="M0 0 C0.66 0.33 1.32 0.66 2 1 C2 1.99 2 2.98 2 4 C-4.93 7.465 -4.93 7.465 -12 11 C-12 11.66 -12 12.32 -12 13 C-13.65 13 -15.3 13 -17 13 C-12.223 7.745 -6.367 3.184 0 0 Z " fill="#CACED3" transform="translate(180,78)"/>
<path d="M0 0 C1.078 0.009 2.155 0.018 3.266 0.027 C4.085 0.039 4.905 0.051 5.75 0.062 C5.75 0.393 5.75 0.722 5.75 1.062 C2.12 1.393 -1.51 1.722 -5.25 2.062 C-4.26 2.722 -3.27 3.382 -2.25 4.062 C-3.023 4.16 -3.797 4.258 -4.594 4.359 C-11.267 5.317 -16.406 6.691 -22.25 10.062 C-20.794 6.226 -19.036 5.097 -15.375 3.375 C-14.511 2.959 -13.648 2.542 -12.758 2.113 C-8.345 0.264 -4.798 -0.052 0 0 Z " fill="#DAA75A" transform="translate(70.25,150.9375)"/>
<path d="M0 0 C1.32 0 2.64 0 4 0 C6.092 4.431 6.092 4.431 5.625 7.312 C5.419 7.869 5.213 8.426 5 9 C4.34 8.01 3.68 7.02 3 6 C2.67 8.97 2.34 11.94 2 15 C1.34 15 0.68 15 0 15 C0 10.05 0 5.1 0 0 Z " fill="#303030" transform="translate(96,109)"/>
<path d="M0 0 C9.9 0.33 19.8 0.66 30 1 C30 1.33 30 1.66 30 2 C24.72 2 19.44 2 14 2 C14 2.66 14 3.32 14 4 C9.031 3.486 4.71 2.766 0 1 C0 0.67 0 0.34 0 0 Z " fill="#D4D6D9" transform="translate(172,108)"/>
<path d="M0 0 C1.504 0.014 1.504 0.014 3.039 0.027 C3.81 0.039 4.581 0.051 5.375 0.062 C2.375 2.062 2.375 2.062 0.25 2.5 C-0.369 2.686 -0.987 2.871 -1.625 3.062 C-1.955 4.053 -2.285 5.042 -2.625 6.062 C-6.103 7.222 -8.084 6.771 -11.625 6.062 C-10.305 5.403 -8.985 4.743 -7.625 4.062 C-7.625 3.072 -7.625 2.083 -7.625 1.062 C-4.98 -0.26 -2.947 -0.034 0 0 Z " fill="#B5B5B5" transform="translate(88.625,204.9375)"/>
<path d="M0 0 C3.375 1.186 5.647 2.276 8 5 C7.67 5.66 7.34 6.32 7 7 C4.69 6.67 2.38 6.34 0 6 C0 5.34 0 4.68 0 4 C-0.99 3.67 -1.98 3.34 -3 3 C-2.01 2.01 -1.02 1.02 0 0 Z " fill="#D5D4D2" transform="translate(90,188)"/>
<path d="M0 0 C-0.33 0.66 -0.66 1.32 -1 2 C-3.504 2.633 -3.504 2.633 -6.562 3.125 C-8.08 3.376 -8.08 3.376 -9.629 3.633 C-10.411 3.754 -11.194 3.875 -12 4 C-12 3.67 -12 3.34 -12 3 C-16.95 2.67 -21.9 2.34 -27 2 C-27 1.67 -27 1.34 -27 1 C-24 0.831 -21 0.664 -18 0.5 C-17.161 0.452 -16.322 0.405 -15.457 0.355 C-10.295 0.075 -5.169 -0.048 0 0 Z " fill="#BBBFC5" transform="translate(80,108)"/>
<path d="M0 0 C0.629 0.205 1.258 0.41 1.906 0.621 C7.303 2.32 12.367 3.478 18 4 C18 4.33 18 4.66 18 5 C11.451 5.993 6.309 6.179 0 4 C-0.33 3.34 -0.66 2.68 -1 2 C-0.67 1.34 -0.34 0.68 0 0 Z " fill="#999999" transform="translate(77,216)"/>
<path d="M0 0 C1.98 0 3.96 0 6 0 C6.382 1.656 6.714 3.325 7 5 C6 6 6 6 2.938 6.062 C1.483 6.032 1.483 6.032 0 6 C0 4.02 0 2.04 0 0 Z " fill="#F5F5F5" transform="translate(132,111)"/>
<path d="M0 0 C0.66 0.33 1.32 0.66 2 1 C0.673 2.671 -0.662 4.337 -2 6 C-2.397 6.539 -2.794 7.078 -3.203 7.633 C-5.257 10.324 -6.534 11.855 -9.812 12.875 C-10.895 12.937 -10.895 12.937 -12 13 C-11.67 12.01 -11.34 11.02 -11 10 C-10.67 10.33 -10.34 10.66 -10 11 C-9.529 10.457 -9.059 9.915 -8.574 9.355 C-7.952 8.64 -7.329 7.925 -6.688 7.188 C-5.765 6.126 -5.765 6.126 -4.824 5.043 C-3.267 3.299 -1.673 1.632 0 0 Z " fill="#CBCFD3" transform="translate(171,74)"/>
<path d="M0 0 C3.634 0.953 7.352 1.225 11.086 1.547 C10.096 3.032 10.096 3.032 9.086 4.547 C6.98 4.096 4.876 3.636 2.773 3.172 C1.602 2.917 0.43 2.661 -0.777 2.398 C-3.914 1.547 -3.914 1.547 -6.914 -0.453 C-4.201 -1.81 -2.772 -0.865 0 0 Z " fill="#EDE1D1" transform="translate(206.9140625,150.453125)"/>
<path d="M0 0 C0.66 0.33 1.32 0.66 2 1 C0.019 3.35 -1.986 5.678 -4 8 C-4.701 8.825 -5.403 9.65 -6.125 10.5 C-6.744 10.995 -7.363 11.49 -8 12 C-9.32 11.67 -10.64 11.34 -12 11 C-8.04 7.37 -4.08 3.74 0 0 Z " fill="#223753" transform="translate(159,89)"/>
<path d="M0 0 C2.475 0.99 2.475 0.99 5 2 C4.67 3.32 4.34 4.64 4 6 C2.02 6.33 0.04 6.66 -2 7 C-1.125 1.125 -1.125 1.125 0 0 Z " fill="#C3C2C0" transform="translate(110,197)"/>
<path d="M0 0 C3.465 1.485 3.465 1.485 7 3 C7 4.32 7 5.64 7 7 C1.125 6.125 1.125 6.125 0 5 C-0.041 3.334 -0.043 1.666 0 0 Z " fill="#E0DEDB" transform="translate(168,127)"/>
<path d="M0 0 C-0.33 1.65 -0.66 3.3 -1 5 C-2.98 5.66 -4.96 6.32 -7 7 C-7 5.35 -7 3.7 -7 2 C-4.353 0.539 -3.106 0 0 0 Z " fill="#DAD9D8" transform="translate(84,128)"/>
<path d="M0 0 C0.99 0 1.98 0 3 0 C3 4.95 3 9.9 3 15 C2.34 15 1.68 15 1 15 C0.67 10.05 0.34 5.1 0 0 Z " fill="#070707" transform="translate(108,109)"/>
<path d="M0 0 C0.577 0.289 1.155 0.577 1.75 0.875 C2.08 1.865 2.41 2.855 2.75 3.875 C-1.705 4.37 -1.705 4.37 -6.25 4.875 C-6.58 4.215 -6.91 3.555 -7.25 2.875 C-2.88 -0.16 -2.88 -0.16 0 0 Z " fill="#E1DED9" transform="translate(162.25,188.125)"/>
<path d="M0 0 C-3.004 2.003 -4.71 2.493 -8.188 3.125 C-9.089 3.293 -9.99 3.46 -10.918 3.633 C-11.605 3.754 -12.292 3.875 -13 4 C-13.33 3.01 -13.66 2.02 -14 1 C-12.419 0.635 -10.835 0.283 -9.25 -0.062 C-8.368 -0.26 -7.487 -0.457 -6.578 -0.66 C-4.013 -0.998 -2.429 -0.812 0 0 Z " fill="#E0D5C4" transform="translate(49,151)"/>
<path d="M0 0 C3.113 1.631 4.607 3.535 6.625 6.375 C5.635 6.705 4.645 7.035 3.625 7.375 C2.965 6.715 2.305 6.055 1.625 5.375 C0.965 4.88 0.305 4.385 -0.375 3.875 C-2.375 2.375 -2.375 2.375 -4.375 0.375 C-2.375 -0.625 -2.375 -0.625 0 0 Z " fill="#BABFC5" transform="translate(82.375,84.625)"/>
<path d="M0 0 C0.99 0.99 1.98 1.98 3 3 C2.34 4.65 1.68 6.3 1 8 C0.67 7.34 0.34 6.68 0 6 C-1.979 5.273 -3.98 4.602 -6 4 C-5.67 3.01 -5.34 2.02 -5 1 C-4.34 1 -3.68 1 -3 1 C-2.67 1.33 -2.34 1.66 -2 2 C-1.34 1.34 -0.68 0.68 0 0 Z " fill="#AFAFAF" transform="translate(171,202)"/>
<path d="M0 0 C1.77 -0.081 3.541 -0.139 5.312 -0.188 C6.299 -0.222 7.285 -0.257 8.301 -0.293 C11 0 11 0 12.855 1.512 C13.233 2.003 13.611 2.494 14 3 C4.59 3.369 4.59 3.369 0 1 C0 0.67 0 0.34 0 0 Z " fill="#DAAA61" transform="translate(28,149)"/>
<path d="M0 0 C1.98 0.66 3.96 1.32 6 2 C6 3.65 6 5.3 6 7 C4.68 7 3.36 7 2 7 C1.34 4.69 0.68 2.38 0 0 Z " fill="#263447" transform="translate(169,133)"/>
<path d="M0 0 C-0.66 2.31 -1.32 4.62 -2 7 C-3.32 6.67 -4.64 6.34 -6 6 C-6 4.68 -6 3.36 -6 2 C-2.25 0 -2.25 0 0 0 Z " fill="#283649" transform="translate(83,133)"/>
<path d="M0 0 C1.98 0.495 1.98 0.495 4 1 C4 2.65 4 4.3 4 6 C2.35 5.67 0.7 5.34 -1 5 C-0.67 3.35 -0.34 1.7 0 0 Z " fill="#959595" transform="translate(131,202)"/>
<path d="M0 0 C0.66 0.33 1.32 0.66 2 1 C0.882 2.339 -0.245 3.671 -1.375 5 C-2.001 5.743 -2.628 6.485 -3.273 7.25 C-4.128 8.116 -4.128 8.116 -5 9 C-5.66 9 -6.32 9 -7 9 C-7.33 8.01 -7.66 7.02 -8 6 C-7.051 5.381 -6.102 4.762 -5.125 4.125 C-2.056 2.18 -2.056 2.18 0 0 Z " fill="#DEB069" transform="translate(237,135)"/>
<path d="M0 0 C0.33 0.66 0.66 1.32 1 2 C0.67 2.99 0.34 3.98 0 5 C0.99 4.67 1.98 4.34 3 4 C5.333 3.96 7.667 3.956 10 4 C10 4.33 10 4.66 10 5 C9.397 5.121 8.793 5.242 8.172 5.367 C7.373 5.535 6.573 5.702 5.75 5.875 C4.567 6.119 4.567 6.119 3.359 6.367 C1.032 6.992 -0.89 7.848 -3 9 C-2.502 5.265 -2.125 3.188 0 0 Z " fill="#949494" transform="translate(65,203)"/>
<path d="M0 0 C2 2 2 2 2.125 4.625 C2.084 5.409 2.043 6.192 2 7 C2.66 7.33 3.32 7.66 4 8 C3.01 8.495 3.01 8.495 2 9 C1.593 11.322 1.256 13.657 1 16 C0.67 16 0.34 16 0 16 C0 10.72 0 5.44 0 0 Z " fill="#545454" transform="translate(75,200)"/>
<path d="M0 0 C-0.33 1.65 -0.66 3.3 -1 5 C-1.66 4.34 -2.32 3.68 -3 3 C-5.46 3.2 -5.46 3.2 -8.125 3.875 C-9.035 4.079 -9.945 4.282 -10.883 4.492 C-11.581 4.66 -12.28 4.827 -13 5 C-13 4.34 -13 3.68 -13 3 C-12.374 2.867 -11.747 2.734 -11.102 2.598 C-10.284 2.421 -9.467 2.244 -8.625 2.062 C-7.813 1.888 -7.001 1.714 -6.164 1.535 C-3.887 0.972 -2.353 0 0 0 Z " fill="#8E8E8E" transform="translate(190,203)"/>
<path d="M0 0 C0.66 0.33 1.32 0.66 2 1 C0.515 2.485 0.515 2.485 -1 4 C-0.67 4.66 -0.34 5.32 0 6 C-2.64 6.33 -5.28 6.66 -8 7 C-5.484 4.394 -2.949 2.106 0 0 Z " fill="#D5D0C7" transform="translate(158,95)"/>
<path d="M0 0 C1.32 0.33 2.64 0.66 4 1 C4.33 2.32 4.66 3.64 5 5 C3.062 5.562 3.062 5.562 1 6 C0 5 0 5 -0.062 2.438 C-0.042 1.633 -0.021 0.829 0 0 Z " fill="#808080" transform="translate(99,209)"/>
<path d="M0 0 C1.784 3.062 2.229 5.221 2.125 8.75 C2.107 9.549 2.089 10.348 2.07 11.172 C2.047 11.775 2.024 12.378 2 13 C1.01 13.495 1.01 13.495 0 14 C-1 11 -1 11 -1 8 C-0.34 7.67 0.32 7.34 1 7 C0.649 6.402 0.299 5.804 -0.062 5.188 C-1 3 -1 3 0 0 Z " fill="#878787" transform="translate(173,195)"/>
<path d="M0 0 C0.33 0 0.66 0 1 0 C1.227 1.114 1.454 2.228 1.688 3.375 C2.606 7.16 2.606 7.16 5.625 8.438 C6.409 8.623 7.192 8.809 8 9 C8 9.33 8 9.66 8 10 C4.73 10.363 3.391 10.285 0.688 8.312 C-1.294 5.596 -1.444 4.288 -1 1 C-0.67 0.67 -0.34 0.34 0 0 Z " fill="#131313" transform="translate(143,114)"/>
<path d="M0 0 C-3.75 2 -3.75 2 -6 2 C-6 2.66 -6 3.32 -6 4 C-7.98 4.99 -7.98 4.99 -10 6 C-9.631 3.324 -9.151 2.157 -7.25 0.188 C-4.4 -1.317 -3.019 -0.923 0 0 Z " fill="#343434" transform="translate(151,110)"/>
<path d="M0 0 C0 3.38 -0.875 5.835 -2 9 C-3.65 9 -5.3 9 -7 9 C-6.022 7.687 -5.042 6.374 -4.062 5.062 C-3.517 4.332 -2.972 3.601 -2.41 2.848 C-1 1 -1 1 0 0 Z " fill="#E8E7E4" transform="translate(163,91)"/>
<path d="M0 0 C0.66 0.33 1.32 0.66 2 1 C0.089 4.536 -1.626 6.79 -5 9 C-5.66 8.67 -6.32 8.34 -7 8 C-4.69 5.36 -2.38 2.72 0 0 Z " fill="#DEE0E2" transform="translate(175,71)"/>
<path d="M0 0 C0.99 0.33 1.98 0.66 3 1 C0.03 3.97 -2.94 6.94 -6 10 C-6.66 9.34 -7.32 8.68 -8 8 C-7.506 7.59 -7.013 7.18 -6.504 6.758 C-5.863 6.219 -5.223 5.68 -4.562 5.125 C-3.924 4.591 -3.286 4.058 -2.629 3.508 C-0.892 2.078 -0.892 2.078 0 0 Z " fill="#263345" transform="translate(170,179)"/>
<path d="M0 0 C-4 2 -8 4 -12 6 C-9.47 0.42 -6.105 -1.919 0 0 Z " fill="#DBB172" transform="translate(60,155)"/>
<path d="M0 0 C0.66 0.33 1.32 0.66 2 1 C2 2.98 2 4.96 2 7 C-0.97 6.67 -3.94 6.34 -7 6 C-3 4 -3 4 0 4 C0 2.68 0 1.36 0 0 Z " fill="#E1DBD3" transform="translate(72,139)"/>
<path d="M0 0 C2.97 1.98 5.94 3.96 9 6 C8.01 7.485 8.01 7.485 7 9 C3.874 6.038 1.952 3.904 0 0 Z " fill="#D9A75B" transform="translate(14,135)"/>
<path d="M0 0 C2 1 2 1 3 3 C-0.3 3.66 -3.6 4.32 -7 5 C-4.511 2.511 -3.161 1.224 0 0 Z " fill="#334760" transform="translate(174,85)"/>
<path d="M0 0 C2.31 0 4.62 0 7 0 C7 0.66 7 1.32 7 2 C4.291 3.354 1.991 3.065 -1 3 C-0.67 2.01 -0.34 1.02 0 0 Z " fill="#FBFCFC" transform="translate(95,177)"/>
<path d="M0 0 C-0.33 0.99 -0.66 1.98 -1 3 C-2.65 3.33 -4.3 3.66 -6 4 C-6 3.34 -6 2.68 -6 2 C-7.32 1.67 -8.64 1.34 -10 1 C-3.375 0 -3.375 0 0 0 Z " fill="#EBEDEF" transform="translate(108,175)"/>
<path d="M0 0 C0 0.66 0 1.32 0 2 C-2.97 3.32 -5.94 4.64 -9 6 C-9.66 5.34 -10.32 4.68 -11 4 C-9.544 3.329 -8.085 2.663 -6.625 2 C-5.813 1.629 -5.001 1.257 -4.164 0.875 C-2 0 -2 0 0 0 Z " fill="#E1D6C4" transform="translate(60,151)"/>
<path d="M0 0 C-1.176 1.52 -1.176 1.52 -3 3 C-5.48 3.074 -5.48 3.074 -8.188 2.688 C-9.539 2.508 -9.539 2.508 -10.918 2.324 C-11.949 2.164 -11.949 2.164 -13 2 C-13 1.67 -13 1.34 -13 1 C-11.21 0.638 -9.418 0.285 -7.625 -0.062 C-6.128 -0.358 -6.128 -0.358 -4.602 -0.66 C-2 -1 -2 -1 0 0 Z " fill="#EFE7DB" transform="translate(227,147)"/>
<path d="M0 0 C2.64 0 5.28 0 8 0 C7.67 0.66 7.34 1.32 7 2 C4.351 2.594 1.708 2.742 -1 3 C-0.67 2.01 -0.34 1.02 0 0 Z " fill="#CED0D2" transform="translate(72,108)"/>
<path d="M0 0 C2.25 0.25 2.25 0.25 4 1 C3.01 1.495 3.01 1.495 2 2 C2.66 2.66 3.32 3.32 4 4 C1.36 4 -1.28 4 -4 4 C-2.25 1.938 -2.25 1.938 0 0 Z " fill="#DFE1E3" transform="translate(190,84)"/>
<path d="M0 0 C0.99 0.33 1.98 0.66 3 1 C2.67 2.32 2.34 3.64 2 5 C2.66 5 3.32 5 4 5 C4 5.66 4 6.32 4 7 C2.68 7 1.36 7 0 7 C-0.381 5.009 -0.713 3.007 -1 1 C-0.67 0.67 -0.34 0.34 0 0 Z " fill="#757575" transform="translate(91,210)"/>
<path d="M0 0 C1.953 0.358 3.906 0.716 5.859 1.074 C5.859 1.404 5.859 1.734 5.859 2.074 C-0.081 2.569 -0.081 2.569 -6.141 3.074 C-2.141 0.074 -2.141 0.074 0 0 Z " fill="#9E7D4B" transform="translate(140.140625,193.92578125)"/>
<path d="M0 0 C6.523 0.615 6.523 0.615 8.938 2.562 C9.288 3.037 9.639 3.511 10 4 C3.477 3.385 3.477 3.385 1.062 1.438 C0.712 0.963 0.361 0.489 0 0 Z " fill="#EDE4D6" transform="translate(192,146)"/>
<path d="M0 0 C6.75 -0.125 6.75 -0.125 9 1 C8.67 1.99 8.34 2.98 8 4 C5.36 3.01 2.72 2.02 0 1 C0 0.67 0 0.34 0 0 Z " fill="#3C3C3C" transform="translate(119,109)"/>
<path d="M0 0 C0.66 0.33 1.32 0.66 2 1 C2 1.99 2 2.98 2 4 C0.02 4.66 -1.96 5.32 -4 6 C-2.25 1.125 -2.25 1.125 0 0 Z " fill="#DADCDF" transform="translate(180,78)"/>
<path d="M0 0 C0.66 0.33 1.32 0.66 2 1 C0.35 3.31 -1.3 5.62 -3 8 C-3.66 7.34 -4.32 6.68 -5 6 C-3.867 2.601 -2.875 1.947 0 0 Z " fill="#D3D5D9" transform="translate(180,67)"/>
<path d="M0 0 C3.646 1.281 5.167 2.167 8 5 C4.7 4.01 1.4 3.02 -2 2 C-1.34 1.34 -0.68 0.68 0 0 Z " fill="#DDAE66" transform="translate(195,154)"/>
</svg>